<?xml version="1.0" encoding="UTF-8"?>
<svg id="Layer_1" data-name="Layer 1" xmlns="http://www.w3.org/2000/svg" viewBox="0 0 150 150">
  <defs>
    <style>
      .cls-1 {
        fill: #fff;
        stroke-width: 0px;
      }
    </style>
  </defs>
  <path class="cls-1" d="M55.33,142.11c-6.44,0-13.37,0-20.36-.06-6.39-.05-11.25-1.33-15.29-4.04-6.59-4.41-10-10.88-10.43-19.79-.05-1.11-.11-2.25-.11-3.39,0-10.99,0-21.98,0-32.97v-7.27h.12v-1c0-3.99-.01-7.97-.02-11.96-.03-10.72-.06-21.81.13-32.7.06-3.28.86-6.86,2.26-10.09,3.41-7.82,9.81-12.29,19.03-13.29,2.79-.3,5.58-.36,8.92-.37,9.81-.02,19.61-.03,29.41-.03,9.12,0,18.24.01,27.36.06,3.6.02,7.45.14,11.12.9,10.2,2.13,17.28,10.45,18.03,21.2.21,2.97.32,5.99.32,8.96.02,12,.02,23.99.02,35.99v13.75c-.02,2.87-1.41,4.65-3.64,4.65-2.3-.04-3.68-1.79-3.68-4.58,0-5.37,0-10.74,0-16.12,0-11.51,0-23.03-.03-34.54,0-3.13-.02-6.37-.53-9.53-1.28-7.85-6.98-12.68-15.63-13.27-1.32-.09-2.74-.13-4.34-.13h-9.5c-17.77.01-36.14.02-54.22.1-2.4,0-4.71.35-6.7.98-6.34,2.02-10.1,6.78-10.87,13.78-.24,2.16-.35,4.54-.35,7.51-.03,28.66-.03,53.87,0,77.07,0,2.99.04,5.91.46,8.8,1.23,8.55,7.37,13.75,16.42,13.91,8.26.15,16.66.15,24.77.15,3.8,0,7.6,0,11.4.02.85,0,1.62,0,2.35.13,1.78.3,3.05,1.8,3.03,3.56-.03,1.8-1.42,3.33-3.25,3.57-.22.03-.44.03-.67.03h-15.54Z"/>
  <path class="cls-1" d="M99.14,142.14c-1.01,0-2.13-.64-3.52-2.03l-3.69-3.69c-4.87-4.86-9.91-9.89-14.81-14.88-.8-.81-1.42-1.83-1.67-2.72-.38-1.4.36-2.93,1.81-3.72.52-.29,1.08-.43,1.66-.43,1,0,1.96.43,2.79,1.24,3.44,3.41,6.87,6.84,10.29,10.27l4.8,4.81c.32.32.65.62,1.02.96l1.27,1.18s6.3-6.75,7.89-8.47l6.35-6.85c6.5-7.01,13.22-14.26,19.87-21.35.82-.87,1.93-1.58,2.96-1.89.22-.07.45-.1.68-.1,1.09,0,2.24.75,2.88,1.87.79,1.4.61,2.98-.5,4.21-1.86,2.08-3.8,4.16-5.67,6.17l-1.67,1.79c-9.72,10.47-19.43,20.94-29.16,31.4-1.4,1.5-2.54,2.2-3.59,2.2h0Z"/>
  <path class="cls-1" d="M51,58.78c-1.26,0-2.53,0-3.79-.02-1.46-.02-3.34-.47-3.98-2.51-.37-1.16-.2-2.3.46-3.21.71-.98,1.91-1.54,3.29-1.55,2.9-.02,5.8-.02,8.7-.02h12.96s11.74,0,11.74,0c3.13,0,6.26,0,9.39.03,2.05.01,3.56,1.4,3.67,3.38.12,2.07-1.21,3.58-3.38,3.84-.45.05-.93.06-1.35.06h-32.3s-5.41.01-5.41.01Z"/>
  <path class="cls-1" d="M51.2,89.64c-1.33,0-2.65,0-3.98-.01-2.51-.02-4.15-1.44-4.18-3.62-.01-.98.32-1.84.96-2.49.74-.76,1.86-1.18,3.14-1.19,3.41-.02,6.82-.03,10.23-.03s6.9.01,10.35.03c2.49.01,4.17,1.47,4.19,3.62,0,.96-.32,1.81-.95,2.45-.77.78-1.96,1.22-3.35,1.23-1.32,0-2.63,0-3.95,0h-6.33s-6.13,0-6.13,0Z"/>
</svg>